<svg xmlns="http://www.w3.org/2000/svg" xmlns:xlink="http://www.w3.org/1999/xlink" viewBox="0 0 46 51" version="1.1" x="0px" y="0px"><title>92 -Cube- (Solid)</title><desc>Created with Sketch.</desc><g stroke="none" stroke-width="1"  fill-rule="evenodd"><g transform="translate(-242.000000, -1413.000000)" ><g transform="translate(242.000000, 1413.000000)"><path d="M7,12.8818 C9.072,11.8458 11.144,10.8108 13.215,9.7748 C16.07,8.3468 18.925,6.9198 21.779,5.4918 C22.495,5.1348 22.988,4.8958 23.747,5.2448 C23.944,5.3358 24.141,5.4308 24.337,5.5238 C24.878,5.7778 25.418,6.0318 25.959,6.2868 C27.515,7.0188 29.07,7.7508 30.626,8.4838 C33.503,9.8368 36.381,11.1918 39.258,12.5448 C39.491,12.6538 39.724,12.7638 39.956,12.8728 L43.194,11.0238 L44.813,10.0978 L23,0.0998 L1.314,10.0388 L7,12.8818 Z"></path><path d="M41.0142,35.0029 C40.9692,35.2359 40.8952,35.4409 40.7812,35.5989 C40.4402,36.0629 39.5802,36.3029 39.0532,36.5509 C38.4372,36.8419 37.8202,37.1319 37.2042,37.4219 C35.5692,38.1909 33.9342,38.9599 32.3002,39.7299 C29.6302,40.9849 26.9592,42.2419 24.2882,43.4989 C24.2672,43.5099 24.0002,43.6109 24.0002,43.6349 L24.0002,50.3209 L46.0002,38.4039 L46.0002,11.7239 L42.0002,14.0089 L41.0002,14.5799 L41.0002,21.4859 L41.0002,32.4859 C41.0002,33.1409 41.1622,34.2279 41.0142,35.0029"></path><polygon points="22 7.6182 8 14.6182 8 33.3282 22 25.8152"></polygon><polygon points="31.438 37.9238 37.719 34.9678 23.014 27.5408 9.174 34.9688 23.013 41.8888"></polygon><polygon points="24 25.7988 27.975 27.8068 39 33.3748 39 14.6348 33.213 11.9118 24 7.5758"></polygon><path d="M22,43.6182 C19.876,42.5562 17.752,41.4942 15.628,40.4312 C12.799,39.0172 9.974,37.5972 7.142,36.1882 C6.3,35.7702 5.996,35.3852 6,34.4622 C6.002,34.0122 6,33.5622 6,33.1132 L6,28.7122 L6,18.2152 L6,14.6182 L0,11.6182 L0,38.4042 L22,50.3212 L22,43.6182 Z"></path></g></g></g></svg>